<svg id="Layer_1" enable-background="new 0 0 512 512" height="512" viewBox="0 0 512 512" width="512" xmlns="http://www.w3.org/2000/svg"><g><g><path d="m39.542 511.978c-9.581.361-18.456-3.691-27.139-12.374-3.253-3.253-5.848-6.527-7.82-9.857-3.281-5.572-4.787-11.292-4.561-17.289.636-17.296 15.323-34.91 44.272-61.313l21.786-7.658 11.688-21.8c3.465-2.984 7.043-6.067 10.741-9.256 43.07-37.088 102.035-87.879 174.28-160.124 2.935-2.935 7.672-2.935 10.607 0l26.297 26.297c2.934 2.934 2.935 7.672 0 10.607-72.245 72.245-123.036 131.21-160.124 174.28-3.196 3.705-6.286 7.29-9.277 10.762l-21.786 11.66-7.623 21.765c-26.424 28.97-44.038 43.656-61.341 44.3z" fill="#dc8758"/><path d="m100.883 467.678c-26.424 28.97-44.038 43.657-61.341 44.3-9.581.361-18.456-3.691-27.139-12.374-3.253-3.253-5.848-6.527-7.82-9.857 5.572 3.281 11.285 4.78 17.282 4.554 24.586-.912 49.801-30.186 100.027-88.487 37.993-44.116 90.361-104.913 165.441-179.57l12.36 12.36c2.934 2.934 2.935 7.672 0 10.607-72.245 72.245-123.036 131.21-160.124 174.28-3.196 3.705-6.286 7.29-9.277 10.762l-21.786 11.66z" fill="#c86d36"/><path d="m100.883 467.678c-5.042-7.036-10.465-13.619-15.91-19.629-16.992-18.788-34.174-32.11-40.68-36.904 9.588-8.754 20.746-18.47 33.474-29.458 5.89 4.151 20.867 15.436 36.607 32.845 5.332 5.883 10.741 12.466 15.917 19.721-10.966 12.707-20.668 23.851-29.408 33.425z" fill="#685e68"/><path d="m130.292 434.253c-10.967 12.707-20.669 23.851-29.409 33.425-5.042-7.036-10.465-13.619-15.91-19.629 8.747-9.652 18.448-20.824 29.401-33.517 5.333 5.883 10.742 12.466 15.918 19.721z" fill="#554e56"/></g><path d="m445.301 252.491c-22.988-1.52-49.342-4.525-78.383-8.945-16.108 31.82-32.11 60.111-47.609 84.167-1.612 2.503-4.54 3.818-7.481 3.352-1.598-.254-3.027-1.004-4.13-2.107-.919-.919-1.598-2.079-1.945-3.401-.113-.424-11.052-42.179-22.274-97.029-54.857-11.229-96.612-22.168-97.036-22.281-2.878-.757-5.035-3.14-5.508-6.074-.46-2.934.849-5.869 3.352-7.481 24.056-15.5 52.347-31.502 84.167-47.609-4.419-29.041-7.425-55.395-8.945-78.383-.191-2.977 1.393-5.791 4.052-7.163 2.652-1.365 5.862-1.025 8.181.87 19.792 16.172 40.368 34.33 61.228 54.03 52.446-23.455 93.062-38.346 93.479-38.509 2.736-.997 5.819-.318 7.884 1.747 2.058 2.058 2.737 5.141 1.74 7.877-.163.417-15.104 41.168-38.622 93.734 32.909 35.101 53.931 60.705 54.143 60.974 1.895 2.305 2.234 5.516.87 8.181-1.372 2.657-4.186 4.241-7.163 4.05z" fill="#fee8c7"/><g fill="#fccd7f"><g><path d="m492.213 19.787c-2.929-2.929-7.677-2.929-10.607 0l-27.821 27.821c-2.929 2.929-2.929 7.677 0 10.607 2.929 2.929 7.677 2.929 10.607 0l27.821-27.821c2.929-2.93 2.929-7.678 0-10.607z"/><path d="m509.803 296.889-27.821-27.821c-2.929-2.929-7.677-2.929-10.607 0-2.929 2.929-2.929 7.677 0 10.607l27.821 27.821c2.929 2.929 7.677 2.929 10.607 0 2.929-2.93 2.929-7.678 0-10.607z"/><path d="m489.119 169.865c-.36-4.128-3.999-7.178-8.125-6.818l-39.196 3.431c-4.127.36-7.179 3.998-6.818 8.124.16 1.828.963 3.444 2.166 4.647 1.514 1.514 3.66 2.372 5.959 2.171l39.196-3.431c4.127-.36 7.179-3.998 6.818-8.124z"/><path d="m403.635 321.697-12.372-37.35c-1.306-3.931-5.546-6.063-9.478-4.762-3.933 1.303-6.064 5.546-4.762 9.478l12.372 37.35c.381 1.148 1.011 2.142 1.811 2.942 1.942 1.942 4.883 2.741 7.667 1.82 3.933-1.303 6.064-5.546 4.762-9.478z"/><path d="m242.932 30.018-27.821-27.821c-2.929-2.929-7.677-2.929-10.607 0-2.929 2.929-2.929 7.677 0 10.607l27.821 27.821c2.929 2.929 7.677 2.929 10.607 0 2.929-2.93 2.929-7.678 0-10.607z"/><path d="m348.953 31.006c.36-4.126-2.69-7.764-6.818-8.125-4.126-.361-7.764 2.691-8.124 6.818l-3.431 39.196c-.201 2.299.657 4.446 2.171 5.959 1.203 1.203 2.819 2.006 4.647 2.166 4.126.361 7.764-2.691 8.124-6.818z"/><path d="m227.653 120.738-37.349-12.372c-3.933-1.303-8.176.829-9.478 4.761-.923 2.786-.123 5.726 1.819 7.668.8.8 1.795 1.43 2.942 1.811l37.349 12.372c3.933 1.303 8.176-.829 9.478-4.761 1.302-3.935-.831-8.177-4.761-9.479z"/></g><path d="m397.451 179.285-16.971-16.971 53.853-84.641c2.058 2.058 2.737 5.141 1.74 7.877-.163.418-15.104 41.168-38.622 93.735z"/><path d="m445.301 252.491c-22.988-1.52-49.342-4.525-78.383-8.945-16.108 31.82-32.11 60.111-47.609 84.167-1.612 2.503-4.54 3.818-7.481 3.352l41.776-107.933 98.86 25.307c-1.372 2.659-4.186 4.243-7.163 4.052z"/></g></g></svg>